<svg xmlns="http://www.w3.org/2000/svg" viewBox="0 0 1600 1000" preserveAspectRatio="xMidYMid slice">
<circle cx="1485.2" cy="910.8" r="0.65" fill="#e6eef6" opacity="0.42"/>
<circle cx="977.8" cy="247.5" r="0.45" fill="#e6eef6" opacity="0.43"/>
<circle cx="199.9" cy="233.6" r="0.45" fill="#e6eef6" opacity="0.45"/>
<circle cx="1285.1" cy="808.1" r="0.65" fill="#e6eef6" opacity="0.16"/>
<circle cx="595.3" cy="707.5" r="1.1" fill="#e6eef6" opacity="0.60"/>
<circle cx="192.3" cy="59.7" r="0.45" fill="#e6eef6" opacity="0.19"/>
<circle cx="601.1" cy="30.0" r="0.45" fill="#e6eef6" opacity="0.35"/>
<circle cx="892.2" cy="214.4" r="0.65" fill="#e6eef6" opacity="0.47"/>
<circle cx="351.9" cy="46.1" r="0.65" fill="#e6eef6" opacity="0.19"/>
<circle cx="703.0" cy="765.6" r="1.1" fill="#e6eef6" opacity="0.60"/>
<circle cx="348.6" cy="4.4" r="0.45" fill="#e6eef6" opacity="0.27"/>
<circle cx="825.1" cy="369.9" r="0.65" fill="#e6eef6" opacity="0.37"/>
<circle cx="1594.9" cy="444.8" r="0.45" fill="#e6eef6" opacity="0.42"/>
<circle cx="797.5" cy="649.1" r="0.45" fill="#e6eef6" opacity="0.21"/>
<circle cx="251.9" cy="856.3" r="0.65" fill="#e6eef6" opacity="0.17"/>
<circle cx="38.3" cy="103.9" r="1.4" fill="#e6eef6" opacity="0.57"/>
<circle cx="329.9" cy="694.9" r="0.65" fill="#e6eef6" opacity="0.33"/>
<circle cx="513.5" cy="923.1" r="0.45" fill="#e6eef6" opacity="0.25"/>
<circle cx="948.1" cy="271.5" r="0.65" fill="#e6eef6" opacity="0.43"/>
<circle cx="431.1" cy="426.4" r="0.45" fill="#e6eef6" opacity="0.28"/>
<circle cx="923.3" cy="125.7" r="0.65" fill="#e6eef6" opacity="0.35"/>
<circle cx="403.5" cy="425.2" r="0.65" fill="#e6eef6" opacity="0.16"/>
<circle cx="303.6" cy="916.0" r="0.85" fill="#e6eef6" opacity="0.45"/>
<circle cx="871.9" cy="984.8" r="1.1" fill="#e6eef6" opacity="0.50"/>
<circle cx="267.0" cy="102.8" r="1.1" fill="#e6eef6" opacity="0.68"/>
<circle cx="474.2" cy="705.9" r="0.65" fill="#e6eef6" opacity="0.43"/>
<circle cx="61.0" cy="934.3" r="0.85" fill="#e6eef6" opacity="0.37"/>
<circle cx="1281.2" cy="817.7" r="0.85" fill="#e6eef6" opacity="0.18"/>
<circle cx="514.2" cy="383.6" r="0.45" fill="#e6eef6" opacity="0.34"/>
<circle cx="463.9" cy="236.0" r="1.1" fill="#e6eef6" opacity="0.57"/>
<circle cx="774.2" cy="612.8" r="0.65" fill="#e6eef6" opacity="0.48"/>
<circle cx="684.0" cy="737.1" r="0.45" fill="#e6eef6" opacity="0.22"/>
<circle cx="1260.9" cy="497.3" r="0.85" fill="#e6eef6" opacity="0.38"/>
<circle cx="276.1" cy="141.9" r="0.65" fill="#e6eef6" opacity="0.21"/>
<circle cx="1469.8" cy="723.3" r="0.65" fill="#e6eef6" opacity="0.19"/>
<circle cx="1070.3" cy="882.5" r="0.65" fill="#e6eef6" opacity="0.40"/>
<circle cx="549.1" cy="834.6" r="0.65" fill="#e6eef6" opacity="0.46"/>
<circle cx="909.1" cy="54.9" r="0.85" fill="#e6eef6" opacity="0.31"/>
<circle cx="709.8" cy="463.2" r="0.65" fill="#e6eef6" opacity="0.34"/>
<circle cx="1072.7" cy="987.1" r="0.65" fill="#e6eef6" opacity="0.28"/>
<circle cx="722.9" cy="764.5" r="0.65" fill="#e6eef6" opacity="0.37"/>
<circle cx="806.9" cy="675.5" r="0.45" fill="#e6eef6" opacity="0.36"/>
<circle cx="1453.8" cy="694.7" r="0.45" fill="#e6eef6" opacity="0.42"/>
<circle cx="307.9" cy="840.1" r="0.65" fill="#e6eef6" opacity="0.23"/>
<circle cx="1518.1" cy="290.3" r="0.45" fill="#e6eef6" opacity="0.28"/>
<circle cx="174.2" cy="443.0" r="0.65" fill="#e6eef6" opacity="0.35"/>
<circle cx="149.0" cy="979.9" r="0.45" fill="#e6eef6" opacity="0.47"/>
<circle cx="451.6" cy="316.1" r="0.85" fill="#e6eef6" opacity="0.38"/>
<circle cx="127.7" cy="483.2" r="1.1" fill="#e6eef6" opacity="0.47"/>
<circle cx="785.4" cy="73.7" r="0.45" fill="#e6eef6" opacity="0.23"/>
<circle cx="513.7" cy="327.8" r="0.65" fill="#e6eef6" opacity="0.20"/>
<circle cx="1424.7" cy="856.7" r="0.45" fill="#e6eef6" opacity="0.23"/>
<circle cx="57.0" cy="322.8" r="0.45" fill="#e6eef6" opacity="0.48"/>
<circle cx="1260.8" cy="266.5" r="0.85" fill="#e6eef6" opacity="0.23"/>
<circle cx="1504.6" cy="534.0" r="0.65" fill="#e6eef6" opacity="0.47"/>
<circle cx="1275.1" cy="234.9" r="0.65" fill="#e6eef6" opacity="0.17"/>
<circle cx="254.1" cy="19.6" r="0.85" fill="#e6eef6" opacity="0.32"/>
<circle cx="524.9" cy="15.5" r="0.85" fill="#e6eef6" opacity="0.41"/>
<circle cx="1554.6" cy="977.6" r="1.4" fill="#e6eef6" opacity="0.46"/>
<circle cx="148.6" cy="784.4" r="1.1" fill="#e6eef6" opacity="0.56"/>
<circle cx="730.4" cy="516.7" r="1.1" fill="#e6eef6" opacity="0.56"/>
<circle cx="697.5" cy="72.9" r="0.85" fill="#e6eef6" opacity="0.46"/>
<circle cx="975.1" cy="579.7" r="0.65" fill="#e6eef6" opacity="0.40"/>
<circle cx="678.8" cy="875.1" r="0.85" fill="#e6eef6" opacity="0.23"/>
<circle cx="796.3" cy="950.4" r="0.65" fill="#e6eef6" opacity="0.39"/>
<circle cx="1510.5" cy="50.1" r="0.85" fill="#e6eef6" opacity="0.30"/>
<circle cx="1152.0" cy="263.4" r="0.45" fill="#e6eef6" opacity="0.28"/>
<circle cx="482.8" cy="266.2" r="0.85" fill="#e6eef6" opacity="0.45"/>
<circle cx="1154.4" cy="198.4" r="0.65" fill="#e6eef6" opacity="0.46"/>
<circle cx="136.7" cy="901.1" r="0.45" fill="#e6eef6" opacity="0.18"/>
<circle cx="709.5" cy="657.7" r="0.45" fill="#e6eef6" opacity="0.40"/>
<circle cx="647.9" cy="581.7" r="0.85" fill="#e6eef6" opacity="0.34"/>
<circle cx="1088.2" cy="400.2" r="0.45" fill="#e6eef6" opacity="0.31"/>
<circle cx="1509.8" cy="67.6" r="0.45" fill="#e6eef6" opacity="0.32"/>
<circle cx="424.3" cy="213.0" r="0.45" fill="#e6eef6" opacity="0.33"/>
<circle cx="1582.4" cy="676.2" r="0.85" fill="#e6eef6" opacity="0.42"/>
<circle cx="922.6" cy="340.6" r="0.45" fill="#e6eef6" opacity="0.38"/>
<circle cx="776.2" cy="13.8" r="0.65" fill="#e6eef6" opacity="0.27"/>
<circle cx="1227.4" cy="828.8" r="0.45" fill="#e6eef6" opacity="0.32"/>
<circle cx="1462.1" cy="791.5" r="0.85" fill="#e6eef6" opacity="0.17"/>
<circle cx="1204.2" cy="339.1" r="0.65" fill="#e6eef6" opacity="0.21"/>
<circle cx="1453.7" cy="725.5" r="0.65" fill="#e6eef6" opacity="0.23"/>
<circle cx="752.2" cy="285.4" r="0.85" fill="#e6eef6" opacity="0.43"/>
<circle cx="257.1" cy="144.1" r="0.85" fill="#e6eef6" opacity="0.36"/>
<circle cx="1392.0" cy="864.7" r="0.45" fill="#e6eef6" opacity="0.21"/>
<circle cx="126.1" cy="722.8" r="0.85" fill="#e6eef6" opacity="0.42"/>
<circle cx="408.7" cy="218.4" r="0.45" fill="#e6eef6" opacity="0.48"/>
<circle cx="1555.2" cy="707.4" r="0.65" fill="#e6eef6" opacity="0.23"/>
<circle cx="776.2" cy="728.0" r="0.45" fill="#e6eef6" opacity="0.29"/>
<circle cx="1463.7" cy="47.6" r="0.65" fill="#e6eef6" opacity="0.16"/>
<circle cx="914.8" cy="111.6" r="0.85" fill="#e6eef6" opacity="0.45"/>
<circle cx="1424.6" cy="653.7" r="1.4" fill="#e6eef6" opacity="0.44"/>
<circle cx="280.1" cy="160.2" r="0.65" fill="#e6eef6" opacity="0.46"/>
<circle cx="154.0" cy="793.3" r="0.45" fill="#e6eef6" opacity="0.37"/>
<circle cx="1549.6" cy="802.6" r="0.65" fill="#e6eef6" opacity="0.22"/>
<circle cx="1318.2" cy="859.5" r="0.65" fill="#e6eef6" opacity="0.32"/>
<circle cx="1375.4" cy="280.9" r="0.45" fill="#e6eef6" opacity="0.36"/>
<circle cx="69.7" cy="512.7" r="0.45" fill="#e6eef6" opacity="0.18"/>
<circle cx="783.4" cy="262.6" r="0.85" fill="#e6eef6" opacity="0.32"/>
<circle cx="332.1" cy="134.0" r="0.45" fill="#e6eef6" opacity="0.22"/>
<circle cx="1002.9" cy="309.0" r="0.45" fill="#e6eef6" opacity="0.24"/>
<circle cx="274.8" cy="714.5" r="1.1" fill="#e6eef6" opacity="0.47"/>
<circle cx="617.5" cy="581.2" r="0.45" fill="#e6eef6" opacity="0.30"/>
<circle cx="1344.0" cy="582.9" r="0.85" fill="#e6eef6" opacity="0.20"/>
<circle cx="1439.4" cy="847.0" r="0.85" fill="#e6eef6" opacity="0.28"/>
<circle cx="552.6" cy="482.4" r="0.45" fill="#e6eef6" opacity="0.40"/>
<circle cx="1589.3" cy="206.3" r="0.65" fill="#e6eef6" opacity="0.47"/>
<circle cx="739.6" cy="370.6" r="0.45" fill="#e6eef6" opacity="0.17"/>
<circle cx="1209.6" cy="555.3" r="0.65" fill="#e6eef6" opacity="0.44"/>
<circle cx="2.7" cy="805.5" r="1.1" fill="#e6eef6" opacity="0.64"/>
<circle cx="288.6" cy="637.8" r="0.65" fill="#e6eef6" opacity="0.36"/>
<circle cx="505.9" cy="652.8" r="0.45" fill="#e6eef6" opacity="0.28"/>
<circle cx="843.8" cy="479.6" r="0.45" fill="#e6eef6" opacity="0.35"/>
<circle cx="1538.2" cy="770.1" r="0.65" fill="#e6eef6" opacity="0.31"/>
<circle cx="379.5" cy="896.5" r="0.65" fill="#e6eef6" opacity="0.27"/>
<circle cx="1198.8" cy="399.5" r="0.65" fill="#e6eef6" opacity="0.34"/>
<circle cx="1286.7" cy="60.8" r="0.45" fill="#e6eef6" opacity="0.17"/>
<circle cx="1581.3" cy="25.9" r="0.45" fill="#e6eef6" opacity="0.37"/>
<circle cx="1298.7" cy="296.0" r="0.65" fill="#e6eef6" opacity="0.34"/>
<circle cx="750.4" cy="953.1" r="1.4" fill="#e6eef6" opacity="0.60"/>
<circle cx="392.8" cy="97.9" r="1.1" fill="#e6eef6" opacity="0.64"/>
<circle cx="1258.7" cy="584.7" r="0.65" fill="#e6eef6" opacity="0.25"/>
<circle cx="1221.8" cy="253.1" r="0.65" fill="#e6eef6" opacity="0.44"/>
<circle cx="430.6" cy="141.1" r="0.65" fill="#e6eef6" opacity="0.25"/>
<circle cx="223.5" cy="309.2" r="1.1" fill="#e6eef6" opacity="0.66"/>
<circle cx="850.3" cy="479.5" r="0.45" fill="#e6eef6" opacity="0.24"/>
<circle cx="200.3" cy="945.4" r="1.4" fill="#e6eef6" opacity="0.56"/>
<circle cx="1482.6" cy="176.7" r="0.45" fill="#e6eef6" opacity="0.21"/>
<circle cx="1327.3" cy="769.3" r="0.85" fill="#e6eef6" opacity="0.27"/>
<circle cx="1149.7" cy="345.1" r="0.45" fill="#e6eef6" opacity="0.17"/>
<circle cx="1088.7" cy="638.5" r="0.65" fill="#e6eef6" opacity="0.34"/>
<circle cx="1595.2" cy="530.9" r="0.65" fill="#e6eef6" opacity="0.48"/>
<circle cx="267.6" cy="944.9" r="0.45" fill="#e6eef6" opacity="0.26"/>
<circle cx="1595.6" cy="895.2" r="0.45" fill="#e6eef6" opacity="0.44"/>
<circle cx="1486.2" cy="106.8" r="0.65" fill="#e6eef6" opacity="0.21"/>
<circle cx="1505.1" cy="529.1" r="0.65" fill="#e6eef6" opacity="0.46"/>
<circle cx="490.1" cy="233.6" r="0.85" fill="#e6eef6" opacity="0.19"/>
<circle cx="822.4" cy="559.0" r="0.45" fill="#e6eef6" opacity="0.30"/>
<circle cx="8.1" cy="244.0" r="0.45" fill="#e6eef6" opacity="0.41"/>
<circle cx="352.8" cy="330.6" r="1.1" fill="#e6eef6" opacity="0.39"/>
<circle cx="1040.7" cy="345.0" r="0.45" fill="#e6eef6" opacity="0.30"/>
<circle cx="591.2" cy="157.0" r="0.65" fill="#e6eef6" opacity="0.25"/>
<circle cx="158.1" cy="382.6" r="0.85" fill="#e6eef6" opacity="0.25"/>
<circle cx="534.7" cy="213.1" r="0.65" fill="#e6eef6" opacity="0.44"/>
<circle cx="463.5" cy="156.2" r="0.65" fill="#e6eef6" opacity="0.41"/>
<circle cx="1170.2" cy="850.8" r="1.4" fill="#e6eef6" opacity="0.43"/>
<circle cx="1006.3" cy="351.8" r="0.65" fill="#e6eef6" opacity="0.26"/>
<circle cx="371.1" cy="490.6" r="0.65" fill="#e6eef6" opacity="0.41"/>
<circle cx="713.2" cy="342.4" r="0.45" fill="#e6eef6" opacity="0.45"/>
<circle cx="203.9" cy="242.6" r="0.65" fill="#e6eef6" opacity="0.46"/>
<circle cx="1187.8" cy="578.7" r="0.65" fill="#e6eef6" opacity="0.24"/>
<circle cx="760.6" cy="372.9" r="1.4" fill="#e6eef6" opacity="0.49"/>
<circle cx="1427.7" cy="708.5" r="0.65" fill="#e6eef6" opacity="0.28"/>
<circle cx="345.3" cy="4.5" r="0.65" fill="#e6eef6" opacity="0.39"/>
<circle cx="1240.7" cy="310.7" r="0.85" fill="#e6eef6" opacity="0.27"/>
<circle cx="454.4" cy="398.1" r="0.65" fill="#e6eef6" opacity="0.29"/>
<circle cx="29.3" cy="290.2" r="0.85" fill="#e6eef6" opacity="0.33"/>
<circle cx="994.0" cy="188.6" r="0.45" fill="#e6eef6" opacity="0.45"/>
<circle cx="1282.2" cy="931.4" r="0.45" fill="#e6eef6" opacity="0.45"/>
<circle cx="1119.0" cy="65.7" r="0.85" fill="#e6eef6" opacity="0.29"/>
<circle cx="237.7" cy="612.3" r="1.1" fill="#e6eef6" opacity="0.58"/>
<circle cx="713.3" cy="140.6" r="0.65" fill="#e6eef6" opacity="0.28"/>
<circle cx="68.7" cy="950.3" r="0.65" fill="#e6eef6" opacity="0.20"/>
<circle cx="1363.6" cy="124.4" r="0.45" fill="#e6eef6" opacity="0.26"/>
<circle cx="1590.8" cy="185.3" r="0.65" fill="#e6eef6" opacity="0.41"/>
<circle cx="716.3" cy="543.8" r="0.65" fill="#e6eef6" opacity="0.34"/>
<circle cx="727.5" cy="615.0" r="0.85" fill="#e6eef6" opacity="0.35"/>
<circle cx="1533.8" cy="63.0" r="0.65" fill="#e6eef6" opacity="0.21"/>
<circle cx="1328.1" cy="337.4" r="0.45" fill="#e6eef6" opacity="0.18"/>
<circle cx="1204.2" cy="212.4" r="1.1" fill="#e6eef6" opacity="0.58"/>
<circle cx="1273.9" cy="644.2" r="0.65" fill="#e6eef6" opacity="0.17"/>
<circle cx="371.9" cy="155.2" r="0.65" fill="#e6eef6" opacity="0.25"/>
<circle cx="971.4" cy="158.9" r="0.45" fill="#e6eef6" opacity="0.18"/>
<circle cx="604.0" cy="281.2" r="0.65" fill="#e6eef6" opacity="0.30"/>
<circle cx="218.7" cy="841.5" r="0.45" fill="#e6eef6" opacity="0.25"/>
<circle cx="1209.5" cy="681.2" r="0.85" fill="#e6eef6" opacity="0.35"/>
<circle cx="273.2" cy="948.5" r="0.65" fill="#e6eef6" opacity="0.26"/>
<circle cx="1315.5" cy="182.8" r="0.85" fill="#e6eef6" opacity="0.32"/>
<circle cx="406.0" cy="124.5" r="0.65" fill="#e6eef6" opacity="0.46"/>
<circle cx="381.6" cy="875.8" r="0.65" fill="#e6eef6" opacity="0.42"/>
<circle cx="1534.3" cy="437.8" r="0.85" fill="#e6eef6" opacity="0.26"/>
<circle cx="485.7" cy="917.5" r="0.45" fill="#e6eef6" opacity="0.21"/>
<circle cx="1462.4" cy="987.3" r="0.85" fill="#e6eef6" opacity="0.17"/>
<circle cx="988.2" cy="152.9" r="0.45" fill="#e6eef6" opacity="0.24"/>
<circle cx="1263.6" cy="534.1" r="0.85" fill="#e6eef6" opacity="0.39"/>
<circle cx="396.5" cy="991.6" r="1.1" fill="#e6eef6" opacity="0.59"/>
<circle cx="1364.6" cy="676.6" r="0.45" fill="#e6eef6" opacity="0.44"/>
<circle cx="443.1" cy="499.8" r="0.45" fill="#e6eef6" opacity="0.44"/>
<circle cx="702.8" cy="84.1" r="0.45" fill="#e6eef6" opacity="0.21"/>
<circle cx="1512.4" cy="95.1" r="0.85" fill="#e6eef6" opacity="0.18"/>
<circle cx="1240.3" cy="891.0" r="0.65" fill="#e6eef6" opacity="0.44"/>
<circle cx="1331.9" cy="282.8" r="0.45" fill="#e6eef6" opacity="0.24"/>
<circle cx="1078.3" cy="772.2" r="0.65" fill="#e6eef6" opacity="0.31"/>
<circle cx="1473.8" cy="750.2" r="0.65" fill="#e6eef6" opacity="0.17"/>
<circle cx="43.7" cy="397.3" r="0.65" fill="#e6eef6" opacity="0.41"/>
<circle cx="54.2" cy="295.4" r="0.65" fill="#e6eef6" opacity="0.31"/>
<circle cx="901.9" cy="517.2" r="0.45" fill="#e6eef6" opacity="0.39"/>
<circle cx="973.6" cy="235.9" r="0.85" fill="#e6eef6" opacity="0.31"/>
<circle cx="135.6" cy="661.0" r="1.1" fill="#e6eef6" opacity="0.58"/>
<circle cx="257.0" cy="374.0" r="0.65" fill="#e6eef6" opacity="0.35"/>
<circle cx="1433.8" cy="696.1" r="0.45" fill="#e6eef6" opacity="0.31"/>
<circle cx="571.6" cy="504.6" r="0.85" fill="#e6eef6" opacity="0.17"/>
<circle cx="599.8" cy="653.7" r="0.85" fill="#e6eef6" opacity="0.26"/>
<circle cx="438.5" cy="144.1" r="0.85" fill="#e6eef6" opacity="0.35"/>
<circle cx="607.6" cy="608.0" r="0.45" fill="#e6eef6" opacity="0.30"/>
<circle cx="877.1" cy="192.2" r="1.1" fill="#e6eef6" opacity="0.52"/>
<circle cx="1392.9" cy="709.9" r="0.65" fill="#e6eef6" opacity="0.34"/>
<circle cx="1532.3" cy="998.7" r="1.1" fill="#e6eef6" opacity="0.63"/>
<circle cx="378.6" cy="62.2" r="0.85" fill="#e6eef6" opacity="0.17"/>
<circle cx="557.4" cy="902.4" r="0.85" fill="#e6eef6" opacity="0.32"/>
</svg>
